<?xml version="1.0" encoding="UTF-8" standalone="no"?>
<svg width="28px" height="28px" viewBox="0 0 28 28" version="1.1" xmlns="http://www.w3.org/2000/svg" xmlns:xlink="http://www.w3.org/1999/xlink" xmlns:sketch="http://www.bohemiancoding.com/sketch/ns">
    <!-- Generator: Sketch 3.2.2 (9983) - http://www.bohemiancoding.com/sketch -->
    <title>icon-comment-toggle</title>
    <desc>Created with Sketch.</desc>
    <defs></defs>
    <g id="Page-1" stroke="none" stroke-width="1" fill="none" fill-rule="evenodd" sketch:type="MSPage">
        <g id="icon-comment-toggle" sketch:type="MSLayerGroup" fill="#000000">
            <path d="M16.5,22 L13.1125388,22 L11,22 L11,28 L16.5,28 L22,28 L22,22 L18.1125388,22 L16.5,22 Z M22,22 L25.1758929,22 L28,22 L28,28 L22,28 L22,22 Z" id="dow-3" sketch:type="MSShapeGroup"></path>
            <path d="M0,22 L3.87388393,22 L6,22 L6,28 L0,28 L0,22 L0,22 Z" id="dow-1" sketch:type="MSShapeGroup"></path>
            <path d="M16.5,0 L14.017139,0 L11,0 L11,6 L16.5,6 L22,6 L22,0 L19.017139,0 L16.5,0 Z M22,0 L24.712995,0 L28,0 L28,6 L22,6 L22,0 Z" id="top-3" sketch:type="MSShapeGroup"></path>
            <path d="M0,0 L3.28835404,0 L6,0 L6,6 L0,6 L0,0 L0,0 Z" id="top-1" sketch:type="MSShapeGroup"></path>
            <path d="M16.5,11 L14.716974,11 L11,11 L11,17 L16.5,17 L22,17 L22,11 L19.716974,11 L16.5,11 Z M22,11 L24.5763587,11 L28,11 L28,17 L22,17 L22,11 Z" id="mid-3" sketch:type="MSShapeGroup"></path>
            <path d="M0,11 L3.20243595,11 L6,11 L6,17 L0,17 L0,11 L0,11 Z" id="mid-1" sketch:type="MSShapeGroup"></path>
        </g>
    </g>
</svg>