<?xml version="1.0" encoding="UTF-8" standalone="no"?>
<svg width="92px" height="92px" viewBox="0 0 92 92" version="1.1" xmlns="http://www.w3.org/2000/svg" xmlns:xlink="http://www.w3.org/1999/xlink" xmlns:sketch="http://www.bohemiancoding.com/sketch/ns">
    <!-- Generator: Sketch 3.2.2 (9983) - http://www.bohemiancoding.com/sketch -->
    <title>search + Line</title>
    <desc>Created with Sketch.</desc>
    <defs></defs>
    <g id="Page-1" stroke="none" stroke-width="1" fill="none" fill-rule="evenodd" sketch:type="MSPage">
        <g id="search-+-Line" sketch:type="MSLayerGroup">
            <path d="M71.879,35.94 C71.879,16.123 55.757,0 35.94,0 C16.122,0 0,16.123 0,35.94 C0,55.75 16.122,71.871 35.94,71.871 C44.329,71.871 52.275,69.012 58.686,63.749 L84.4,89.699 L89.724,84.429 L63.961,58.421 C69.091,52.063 71.879,44.203 71.879,35.94 Z M35.893,62.8020645 C21.0754427,62.8020645 9.02459718,50.7520536 9.02459718,35.9395038 C9.02459718,21.1219464 21.0754427,9.07193554 35.893,9.07193554 C50.7038806,9.07193554 62.7614029,21.1219464 62.7614029,35.9395038 C62.7614029,50.7520536 50.7038806,62.8020645 35.893,62.8020645 L35.893,62.8020645 L35.893,62.8020645 Z" id="search" fill="#000000" sketch:type="MSShapeGroup"></path>
            <path d="M82.5,82.5 L72.5805947,72.5805947 L59.5,59.5" id="Line" stroke="#000000" stroke-width="13" stroke-linecap="square" sketch:type="MSShapeGroup"></path>
        </g>
    </g>
</svg>