<?xml version="1.0" encoding="utf-8"?>
<!-- Generator: Adobe Illustrator 17.0.0, SVG Export Plug-In . SVG Version: 6.00 Build 0)  -->
<!DOCTYPE svg PUBLIC "-//W3C//DTD SVG 1.1//EN" "http://www.w3.org/Graphics/SVG/1.1/DTD/svg11.dtd">
<svg version="1.1" xmlns="http://www.w3.org/2000/svg" xmlns:xlink="http://www.w3.org/1999/xlink" x="0px" y="0px" width="90px"
	 height="90px" viewBox="-0.138 -0.151 90 90" enable-background="new -0.138 -0.151 90 90" xml:space="preserve">
<g id="search" xmlns:sketch="http://www.bohemiancoding.com/sketch/ns">
	<path display="none" d="M64.02,58.467c5.146-6.379,7.942-14.266,7.942-22.556c0-19.884-16.172-36.061-36.05-36.061
		c-19.879,0-36.051,16.177-36.051,36.061c0,19.876,16.172,36.052,36.051,36.052c8.415,0,16.385-2.869,22.816-8.149l25.793,26.037
		l5.34-5.288L64.02,58.467z M35.865,62.862c-14.863,0-26.951-12.09-26.951-26.953c0-14.867,12.088-26.958,26.951-26.958
		c14.856,0,26.951,12.09,26.951,26.958C62.816,50.772,50.722,62.862,35.865,62.862z"/>
</g>
<g id="arrow">
	<path d="M35.865-0.211c-12.816,0-24.073,6.674-30.484,16.737c-3.568,5.6-5.636,12.25-5.636,19.383
		c0,19.949,16.172,36.12,36.12,36.12c19.949,0,36.12-16.172,36.12-36.12C71.986,15.961,55.814-0.211,35.865-0.211z M8.745,35.91
		c0-5.178,1.461-10.208,4.226-14.547c1.174-1.843,2.55-3.505,4.077-4.981l19.41,19.41L16.966,55.334
		C11.901,50.404,8.745,43.52,8.745,35.91z M35.865,63.03c-4.057,0-7.905-0.902-11.365-2.505l24.678-24.74l-24.56-24.56
		c3.471-1.579,7.289-2.435,11.247-2.435c14.954,0,27.12,12.166,27.12,27.12C62.986,50.864,50.82,63.03,35.865,63.03z"/>
</g>
</svg>
