<?xml version="1.0" encoding="UTF-8" standalone="no"?>
<svg width="181px" height="22px" viewBox="0 0 181 22" version="1.1" xmlns="http://www.w3.org/2000/svg" xmlns:xlink="http://www.w3.org/1999/xlink" xmlns:sketch="http://www.bohemiancoding.com/sketch/ns">
    <!-- Generator: Sketch 3.2.2 (9983) - http://www.bohemiancoding.com/sketch -->
    <title>logo 2</title>
    <desc>Created with Sketch.</desc>
    <defs></defs>
    <g id="Page-1" stroke="none" stroke-width="1" fill="none" fill-rule="evenodd" sketch:type="MSPage">
        <g id="logo-2" sketch:type="MSLayerGroup" fill="#000000">
            <path d="M17.4535578,14.8802494 C15.2315122,14.8495311 14.6778405,13.5300773 12.0693139,13.5300773 C11.7896817,13.5300773 11.5165252,13.5475897 11.2480784,13.5731404 C11.2106959,13.5771597 11.1765514,13.5826143 11.1359311,13.5866336 C11.0552793,13.5926624 10.9743332,13.6024234 10.8930927,13.6136198 C10.8875,13.6141939 10.8822017,13.6153423 10.8766091,13.6159165 C8.27897338,13.988843 5.47411552,16.6326309 5.47411552,16.6326309 L9.17203024,11.2798862 C9.66536026,10.4992956 10.1937179,9.62367899 10.7235473,8.67772599 C12.7580921,5.04406069 11.4114424,1.19737653 8.43762785,0.220130998 C5.46322459,-0.756540359 3.17848257,1.77758018 2.61509733,2.72382027 C2.05171209,3.67006036 2.02021668,5.10521031 1.92602479,5.53297054 C1.83212725,5.9601566 1.20663423,6.96812049 0.768641944,7.76191716 C0.330649658,8.55600093 0.420426302,8.77303901 0.580552514,8.8918932 C1.23812964,9.38022887 3.49196495,6.66323366 3.92995724,6.11346128 C4.36912692,5.56368889 6.04309341,3.76221542 7.65524647,4.8614731 C8.74904978,5.60732618 5.99599746,9.71612114 5.68310378,10.2351752 C5.37050445,10.7542292 1.23812964,17.6546621 0.924352911,18.173142 C0.611459228,18.6930573 -0.188583133,20.2975888 0.0407152476,21.2111009 C0.24322781,22.0175294 1.23783529,21.9618345 1.23783529,21.9618345 C1.23783529,21.9618345 12.6421183,21.9423125 14.3225605,21.989969 C16.4518859,22.0511186 19.0080183,21.8811629 20.9601452,20.0969147 C23.9586851,17.3560912 26,11.1205527 26,11.1205527 C24.9044306,11.6396068 19.6764864,14.9103936 17.4535578,14.8802494 L17.4535578,14.8802494 Z M11.2884043,15.6416052 C11.2884043,15.6416052 9.66771506,15.8999839 8.3045818,16.3027675 C7.04770878,16.6745457 5.88944289,17.2665199 5.88944289,17.2665199 C6.68595305,16.3395147 7.50483379,15.5968196 8.76494466,15.000539 C10.6296497,14.1186065 12.6085625,14.4576567 12.6085625,14.4576567 C12.6085625,14.4576567 11.2363044,14.6212966 10.0824537,14.9566147 C8.83764903,15.3177706 8.40672114,15.7056257 8.10501274,15.8813232 C8.61453199,15.7659141 9.06017737,15.677204 9.61885301,15.6217962 C10.5757837,15.5267702 11.2884043,15.6416052 11.2884043,15.6416052 L11.2884043,15.6416052 Z" id="Shape" sketch:type="MSShapeGroup" transform="translate(13.000000, 11.000000) scale(-1, 1) translate(-13.000000, -11.000000) "></path>
            <path d="M36,21.8273769 L36,6.17262306 L41.5838861,6.17262306 C42.6392278,6.17262306 43.5409531,6.2715207 44.2890892,6.46931895 C45.0372253,6.66711719 45.6480132,6.94762686 46.1214712,7.31085637 C46.5949293,7.67408588 46.9400787,8.11462991 47.1569297,8.63250169 C47.3737808,9.15037346 47.4822047,9.72937419 47.4822047,10.3695212 C47.4822047,10.7291544 47.4297998,11.0743971 47.3249884,11.4052596 C47.2201771,11.7361221 47.0575413,12.0472002 46.8370761,12.338503 C46.6166109,12.6298059 46.3329017,12.8941323 45.98594,13.1314902 C45.6389784,13.3688481 45.2269676,13.5702397 44.7498953,13.7356709 C46.846122,14.2247721 47.8942196,15.3719847 47.8942196,17.1773432 C47.8942196,17.8390683 47.765918,18.4540318 47.5093109,19.0222522 C47.2527038,19.5904726 46.8786414,20.0831627 46.3871124,20.5003372 C45.8955834,20.9175116 45.2902167,21.2429748 44.5709941,21.4767363 C43.8517715,21.7104979 43.0259429,21.8273769 42.0934835,21.8273769 L36,21.8273769 Z M39.2527492,15.0627107 L39.2527492,19.3459204 L42.039271,19.3459204 C42.5597135,19.3459204 42.9879878,19.2829856 43.3241069,19.157114 C43.660226,19.0312423 43.9294787,18.8640154 44.131873,18.6554282 C44.3342673,18.4468409 44.4752183,18.2076885 44.5547304,17.9379636 C44.6342424,17.6682387 44.6739979,17.3895272 44.6739979,17.1018206 C44.6739979,16.7853434 44.6270142,16.5012375 44.5330454,16.2494943 C44.4390766,15.997751 44.2872832,15.7837725 44.0776605,15.6075523 C43.8680378,15.431332 43.595171,15.2964716 43.259052,15.202967 C42.9229329,15.1094623 42.509115,15.0627107 42.017586,15.0627107 L39.2527492,15.0627107 Z M39.2527492,12.8617667 L41.3887212,12.8617667 C41.8441083,12.8617667 42.2488908,12.8240058 42.6030809,12.7484828 C42.9572709,12.6729598 43.2536295,12.5524845 43.4921656,12.3870533 C43.7307018,12.221622 43.9132153,12.0040472 44.0397118,11.7343223 C44.1662082,11.4645974 44.2294555,11.1391343 44.2294555,10.7579231 C44.2294555,10.3695193 44.1770506,10.0386617 44.0722392,9.76534053 C43.9674279,9.49201931 43.8065991,9.27264637 43.5897481,9.1072151 C43.3728971,8.94178384 43.0982232,8.82130854 42.7657183,8.74578557 C42.4332134,8.6702626 42.0392733,8.63250169 41.5838861,8.63250169 L39.2527492,8.63250169 L39.2527492,12.8617667 Z M54.4783897,19.1948753 L60.5610307,19.1948753 L60.5610307,21.8273769 L51.2256405,21.8273769 L51.2256405,6.17262306 L54.4783897,6.17262306 L54.4783897,19.1948753 Z M77.1528258,21.8273769 L74.626524,21.8273769 C74.3446176,21.8273769 74.1151204,21.7608458 73.9380254,21.6277815 C73.7609304,21.4947172 73.6290146,21.3238941 73.5422742,21.1153068 L72.4797095,18.1267701 L66.2127461,18.1267701 L65.1501813,21.1153068 C65.0778976,21.2951234 64.9514031,21.458754 64.7706939,21.6062036 C64.5899847,21.7536532 64.3622946,21.8273769 64.0876166,21.8273769 L61.5396297,21.8273769 L67.6873257,6.17262306 L71.0159724,6.17262306 L77.1528258,21.8273769 Z M67.0042484,15.8826703 L71.6882072,15.8826703 L69.9859351,11.0923803 C69.884738,10.8406371 69.7781211,10.5457423 69.6660814,10.2076871 C69.5540417,9.86963194 69.4438108,9.50640788 69.3353853,9.11800405 C69.2341881,9.51360054 69.1293784,9.88221902 69.0209529,10.2238705 C68.9125273,10.565522 68.8077176,10.862215 68.7065204,11.1139582 L67.0042484,15.8826703 Z M89.667842,17.9757249 C89.8485512,17.9757249 90.0003446,18.0404579 90.1232269,18.1699258 L91.4134841,19.5401214 C90.7773877,20.3456997 89.9877004,20.9570669 89.0443984,21.3742414 C88.1010964,21.7914159 86.9789092,22 85.677803,22 C84.4995791,22 83.4406391,21.8004066 82.5009513,21.4012138 C81.5612635,21.0020209 80.7625408,20.446396 80.1047594,19.7343223 C79.4469779,19.0222486 78.9409998,18.1771233 78.5868098,17.1989211 C78.2326197,16.2207189 78.0555274,15.1526244 78.0555274,13.9946055 C78.0555274,13.2177979 78.1404594,12.4787628 78.3103261,11.7774781 C78.4801927,11.0761934 78.7277606,10.4306615 79.0530371,9.84086312 C79.3783137,9.25106471 79.7704468,8.71881559 80.2294481,8.2440998 C80.6884494,7.76938401 81.2070771,7.36480275 81.7853465,7.0303439 C82.3636159,6.69588504 82.9942815,6.44054932 83.6773622,6.26432906 C84.360443,6.08810881 85.0886901,6 85.8621255,6 C86.4403949,6 86.9879355,6.05034789 87.5047638,6.15104518 C88.0215921,6.25174247 88.5040784,6.3919973 88.9522372,6.57181389 C89.400396,6.75163048 89.8142138,6.96920529 90.1937031,7.22454484 C90.5731924,7.4798844 90.9147277,7.75859593 91.2183191,8.0606878 L90.1232269,9.5495617 C90.0581716,9.64306633 89.9750466,9.72578071 89.8738495,9.79770735 C89.7726523,9.86963399 89.6353154,9.90559676 89.4618346,9.90559676 C89.2883537,9.90559676 89.1130685,9.84446004 88.9359734,9.72218476 C88.7588784,9.59990948 88.5420307,9.46325092 88.2854236,9.31220499 C88.0288166,9.16115906 87.707159,9.0245005 87.3204413,8.90222522 C86.9337237,8.77994994 86.4440091,8.71881322 85.851283,8.71881322 C85.1935015,8.71881322 84.5899418,8.83749038 84.0405859,9.07484828 C83.49123,9.31220618 83.019586,9.65565071 82.62564,10.1051922 C82.231694,10.5547336 81.9263,11.1067623 81.709449,11.7612947 C81.492598,12.4158271 81.3841741,13.1602566 81.3841741,13.9946055 C81.3841741,14.8361472 81.5016333,15.5859711 81.7365552,16.2440998 C81.9714772,16.9022285 82.2931347,17.4578534 82.7015375,17.9109912 C83.1099403,18.364129 83.5870054,18.7075736 84.1327471,18.9413351 C84.6784889,19.1750967 85.2621708,19.2919757 85.8838104,19.2919757 C86.2524572,19.2919757 86.5867642,19.2739943 86.8867415,19.238031 C87.1867187,19.2020677 87.4650067,19.140931 87.7216137,19.054619 C87.9782208,18.9683071 88.2203675,18.8568224 88.4480611,18.7201618 C88.6757546,18.5835012 88.9052519,18.4108799 89.1365596,18.2022927 C89.2160717,18.1375587 89.2991967,18.0836145 89.3859371,18.0404585 C89.4726775,17.9973025 89.5666449,17.9757249 89.667842,17.9757249 L89.667842,17.9757249 Z M97.3362619,12.6351989 L97.9759692,12.6351989 C98.5108684,12.6351989 98.8975803,12.4697701 99.1361164,12.1389076 L103.115313,6.84153742 C103.303251,6.5897942 103.509256,6.41537473 103.733335,6.31827377 C103.957415,6.22117281 104.232089,6.17262306 104.557365,6.17262306 L107.376414,6.17262306 L102.367181,12.5920432 C102.041904,13.0092176 101.70579,13.3077087 101.358828,13.4875253 C101.611821,13.5882226 101.839511,13.7194867 102.041906,13.8813216 C102.2443,14.0431566 102.439463,14.2571351 102.627401,14.5232637 L107.766744,21.8273769 L104.871798,21.8273769 C104.68386,21.8273769 104.523031,21.8129918 104.389306,21.7842212 C104.255582,21.7554505 104.138122,21.7158915 104.036925,21.6655428 C103.935728,21.6151942 103.848989,21.5522593 103.776705,21.4767363 C103.704422,21.4012134 103.635753,21.3131046 103.570698,21.2124073 L99.5264463,15.5805799 C99.3891074,15.386378 99.2264715,15.2479213 99.038534,15.1652057 C98.8505964,15.08249 98.5867649,15.0411328 98.2470317,15.0411328 L97.3362619,15.0411328 L97.3362619,21.8273769 L94.0835127,21.8273769 L94.0835127,6.17262306 L97.3362619,6.17262306 L97.3362619,12.6351989 Z M124.502266,9.17194875 C124.401069,9.33738001 124.298066,9.45785532 124.193255,9.53337829 C124.088444,9.60890125 123.952914,9.64666217 123.786661,9.64666217 C123.627637,9.64666217 123.455966,9.59091987 123.271643,9.47943358 C123.087319,9.3679473 122.872279,9.24747199 122.626514,9.11800405 C122.38075,8.9885361 122.098848,8.8680608 121.780799,8.75657451 C121.462751,8.64508823 121.090496,8.58934592 120.664022,8.58934592 C119.912272,8.58934592 119.348468,8.75657284 118.972593,9.09103169 C118.596717,9.42549055 118.408783,9.8624383 118.408783,10.4018881 C118.408783,10.7471359 118.511785,11.03304 118.717794,11.2596089 C118.923802,11.4861778 119.194862,11.6821749 119.530981,11.8476062 C119.8671,12.0130375 120.248391,12.1604849 120.674865,12.2899528 C121.101338,12.4194207 121.538648,12.5614737 121.986807,12.716116 C122.434966,12.8707582 122.872275,13.0523703 123.298749,13.2609575 C123.725223,13.4695448 124.106513,13.732073 124.442632,14.0485502 C124.778752,14.3650274 125.049811,14.7516273 125.25582,15.2083614 C125.461828,15.6650956 125.564831,16.2207205 125.564831,16.8752529 C125.564831,17.5873266 125.440143,18.2544361 125.190765,18.8766015 C124.941386,19.4987669 124.58178,20.0418048 124.111936,20.5057316 C123.642092,20.9696584 123.062025,21.3346806 122.371715,21.6008092 C121.681406,21.8669377 120.898947,22 120.024315,22 C119.525557,22 119.028615,21.9496521 118.533471,21.8489548 C118.038328,21.7482575 117.561263,21.6080027 117.102262,21.4281861 C116.64326,21.2483695 116.211372,21.0325929 115.806583,20.7808496 C115.401795,20.5291064 115.04761,20.2485967 114.744019,19.9393122 L115.698158,18.4072825 C115.77767,18.2921999 115.88248,18.1968986 116.012591,18.1213756 C116.142701,18.0458526 116.280038,18.0080917 116.424606,18.0080917 C116.619772,18.0080917 116.825777,18.0800173 117.042628,18.2238705 C117.259479,18.3677238 117.508854,18.52596 117.79076,18.698584 C118.072667,18.8712079 118.399745,19.0294441 118.772006,19.1732974 C119.144267,19.3171506 119.590612,19.3890762 120.111055,19.3890762 C120.870033,19.3890762 121.457329,19.2164549 121.872961,18.871207 C122.288592,18.5259592 122.496404,18.0116914 122.496404,17.3283884 C122.496404,16.9327919 122.393401,16.6127232 122.187393,16.3681726 C121.981385,16.1236221 121.712132,15.9186342 121.379627,15.753203 C121.047122,15.5877717 120.667638,15.4457187 120.241165,15.3270398 C119.814691,15.2083608 119.377381,15.0770967 118.929223,14.9332434 C118.481064,14.7893902 118.043754,14.6167688 117.61728,14.4153742 C117.190807,14.2139797 116.811323,13.9478551 116.478818,13.6169926 C116.146313,13.2861301 115.877061,12.8761544 115.671052,12.3870533 C115.465044,11.8979522 115.362041,11.2901812 115.362041,10.5637222 C115.362041,9.98111644 115.477693,9.41650082 115.709001,8.8698584 C115.940309,8.32321597 116.280037,7.83771846 116.728196,7.41335131 C117.176354,6.98898417 117.727509,6.64733777 118.381676,6.38840189 C119.035844,6.129466 119.785776,6 120.631495,6 C121.578411,6 122.454837,6.14564925 123.2608,6.43695212 C124.066763,6.728255 124.748027,7.13283625 125.304611,7.65070802 L124.502266,9.17194875 Z M127.23735,6.17262306 L129.969659,6.17262306 C130.251565,6.17262306 130.488291,6.23735606 130.679843,6.36682401 C130.871394,6.49629195 130.996082,6.66891328 131.053909,6.88469319 L133.493471,15.7100472 C133.551298,15.9617904 133.610931,16.227915 133.672372,16.5084289 C133.733813,16.7889427 133.793446,17.0874338 133.851273,17.403911 C133.916328,17.0874338 133.984997,16.7871446 134.057281,16.5030344 C134.129564,16.2189242 134.209075,15.9545978 134.295816,15.7100472 L137.13655,6.88469319 C137.194377,6.7048766 137.319064,6.54124596 137.510616,6.39379636 C137.702168,6.24634676 137.935279,6.17262306 138.209957,6.17262306 L139.164097,6.17262306 C139.446003,6.17262306 139.6755,6.2391542 139.852595,6.37221848 C140.02969,6.50528275 140.161606,6.67610595 140.248347,6.88469319 L143.078238,15.7100472 C143.15775,15.9402124 143.235454,16.1919519 143.311352,16.4652731 C143.38725,16.7385943 143.454111,17.0262965 143.511938,17.3283884 C143.569765,17.0262965 143.627591,16.7385943 143.685418,16.4652731 C143.743245,16.1919519 143.801071,15.9402124 143.858898,15.7100472 L146.29846,6.88469319 C146.349059,6.69768394 146.471939,6.53225516 146.667105,6.38840189 C146.862271,6.24454862 147.097189,6.17262306 147.371867,6.17262306 L149.930697,6.17262306 L145.051573,21.8273769 L142.113256,21.8273769 L138.893034,11.5886716 C138.835207,11.4448183 138.782803,11.2865821 138.735818,11.1139582 C138.688834,10.9413343 138.643657,10.7615204 138.600287,10.5745111 C138.549688,10.7615204 138.500898,10.9413343 138.453913,11.1139582 C138.406929,11.2865821 138.358138,11.4448183 138.30754,11.5886716 L135.05479,21.8273769 L132.105631,21.8273769 L127.23735,6.17262306 Z M165.232235,21.8273769 L162.705933,21.8273769 C162.424026,21.8273769 162.194529,21.7608458 162.017434,21.6277815 C161.840339,21.4947172 161.708423,21.3238941 161.621683,21.1153068 L160.559118,18.1267701 L154.292155,18.1267701 L153.22959,21.1153068 C153.157306,21.2951234 153.030812,21.458754 152.850103,21.6062036 C152.669394,21.7536532 152.441703,21.8273769 152.167025,21.8273769 L149.619039,21.8273769 L155.766734,6.17262306 L159.095381,6.17262306 L165.232235,21.8273769 Z M155.083657,15.8826703 L159.767616,15.8826703 L158.065344,11.0923803 C157.964147,10.8406371 157.85753,10.5457423 157.74549,10.2076871 C157.633451,9.86963194 157.52322,9.50640788 157.414794,9.11800405 C157.313597,9.51360054 157.208787,9.88221902 157.100362,10.2238705 C156.991936,10.565522 156.887126,10.862215 156.785929,11.1139582 L155.083657,15.8826703 Z M169.23589,6.17262306 C169.373229,6.17262306 169.490689,6.17801748 169.588272,6.18880647 C169.685855,6.19959547 169.774401,6.22476941 169.853913,6.26432906 C169.933425,6.30388871 170.009322,6.35603474 170.081605,6.42076871 C170.153889,6.48550268 170.2334,6.57181335 170.32014,6.6797033 L178.213478,16.659474 C178.184565,16.3861528 178.16288,16.1200283 178.148423,15.8610924 C178.133966,15.6021565 178.126738,15.3576096 178.126738,15.1274444 L178.126738,6.17262306 L181,6.17262306 L181,21.8273769 L179.319413,21.8273769 C179.06642,21.8273769 178.853186,21.7860197 178.679706,21.7033041 C178.506225,21.6205885 178.336361,21.4785355 178.170108,21.2771409 L170.330983,11.3621038 C170.352668,11.6138471 170.368931,11.8601921 170.379774,12.1011463 C170.390616,12.3421006 170.396038,12.5668679 170.396038,12.7754552 L170.396038,21.8273769 L167.522776,21.8273769 L167.522776,6.17262306 L169.23589,6.17262306 Z" id="BLACK-SWAN" sketch:type="MSShapeGroup"></path>
        </g>
    </g>
</svg>