<?xml version="1.0" encoding="UTF-8" standalone="no"?>
<svg width="90px" height="90px" viewBox="0 0 90 90" version="1.1" xmlns="http://www.w3.org/2000/svg" xmlns:xlink="http://www.w3.org/1999/xlink" xmlns:sketch="http://www.bohemiancoding.com/sketch/ns">
    <!-- Generator: Sketch 3.2.2 (9983) - http://www.bohemiancoding.com/sketch -->
    <title>search 2</title>
    <desc>Created with Sketch.</desc>
    <defs></defs>
    <g id="Page-1" stroke="none" stroke-width="1" fill="none" fill-rule="evenodd" sketch:type="MSPage">
        <path d="M63.961,58.421 C69.091,52.063 71.879,44.203 71.879,35.94 C71.879,16.123 55.757,0 35.94,0 C16.122,0 0,16.123 0,35.94 C0,55.75 16.122,71.871 35.94,71.871 C44.329,71.871 52.275,69.012 58.686,63.749 L84.4,89.699 L89.724,84.429 L63.961,58.421 L63.961,58.421 Z M35.94,68.126 C18.186,68.126 3.747,53.688 3.747,35.94 C3.747,18.186 18.186,3.748 35.94,3.748 C53.686,3.748 68.133,18.186 68.133,35.94 C68.133,53.688 53.686,68.126 35.94,68.126 L35.94,68.126 Z" id="search" fill="#000000" sketch:type="MSShapeGroup"></path>
    </g>
</svg>