<?xml version="1.0" encoding="utf-8"?>
<!-- Generator: Adobe Illustrator 17.0.0, SVG Export Plug-In . SVG Version: 6.00 Build 0)  -->
<!DOCTYPE svg PUBLIC "-//W3C//DTD SVG 1.1//EN" "http://www.w3.org/Graphics/SVG/1.1/DTD/svg11.dtd">
<svg version="1.1" id="Layer_1" xmlns="http://www.w3.org/2000/svg" xmlns:xlink="http://www.w3.org/1999/xlink" x="0px" y="0px"
	 width="3.899px" height="6.686px" viewBox="0 0 3.899 6.686" enable-background="new 0 0 3.899 6.686" xml:space="preserve">
<path d="M3.832,3.497L0.71,6.618C0.67,6.659,0.61,6.686,0.556,6.686S0.442,6.659,0.402,6.618L0.067,6.284
	C0.027,6.243,0,6.189,0,6.129c0-0.054,0.027-0.114,0.067-0.154L2.7,3.343L0.067,0.71C0.027,0.67,0,0.61,0,0.556
	s0.027-0.114,0.067-0.154l0.334-0.334C0.442,0.027,0.502,0,0.556,0S0.67,0.027,0.71,0.067l3.121,3.121
	c0.041,0.041,0.067,0.101,0.067,0.154S3.872,3.457,3.832,3.497z"/>
</svg>
