<?xml version="1.0" encoding="utf-8"?>
<!-- Generator: Adobe Illustrator 17.0.0, SVG Export Plug-In . SVG Version: 6.00 Build 0)  -->
<!DOCTYPE svg PUBLIC "-//W3C//DTD SVG 1.1//EN" "http://www.w3.org/Graphics/SVG/1.1/DTD/svg11.dtd">
<svg version="1.1" id="Layer_1" xmlns="http://www.w3.org/2000/svg" xmlns:xlink="http://www.w3.org/1999/xlink" x="0px" y="0px"
	 width="3.899px" height="6.686px" viewBox="0 0 3.899 6.686" enable-background="new 0 0 3.899 6.686" xml:space="preserve">
<path d="M3.832,0.71L1.199,3.343l2.632,2.632c0.041,0.041,0.067,0.101,0.067,0.154S3.872,6.243,3.832,6.284L3.497,6.618
	C3.457,6.659,3.396,6.686,3.343,6.686S3.229,6.659,3.188,6.618L0.067,3.497C0.027,3.457,0,3.396,0,3.343s0.027-0.114,0.067-0.154
	l3.121-3.121C3.229,0.027,3.289,0,3.343,0s0.114,0.027,0.154,0.067l0.334,0.334c0.041,0.041,0.067,0.094,0.067,0.154
	C3.899,0.61,3.872,0.67,3.832,0.71z"/>
</svg>
