<?xml version="1.0" encoding="utf-8"?>
<!-- Generator: Adobe Illustrator 17.0.0, SVG Export Plug-In . SVG Version: 6.00 Build 0)  -->
<!DOCTYPE svg PUBLIC "-//W3C//DTD SVG 1.1//EN" "http://www.w3.org/Graphics/SVG/1.1/DTD/svg11.dtd">
<svg version="1.1" id="Layer_1" xmlns="http://www.w3.org/2000/svg" xmlns:xlink="http://www.w3.org/1999/xlink" x="0px" y="0px"
	 width="12.004px" height="9.433px" viewBox="0 0 12.004 9.433" enable-background="new 0 0 12.004 9.433" xml:space="preserve">
<path d="M4.716,6.859c-0.409,0-0.804-0.04-1.179-0.107C2.981,7.147,2.351,7.436,1.675,7.61C1.494,7.657,1.299,7.69,1.099,7.717
	c-0.007,0-0.014,0-0.02,0c-0.101,0-0.194-0.081-0.214-0.194c-0.027-0.127,0.06-0.208,0.134-0.294
	c0.261-0.295,0.556-0.556,0.784-1.112C0.697,5.486,0,4.515,0,3.43C0,1.534,2.11,0,4.716,0s4.716,1.534,4.716,3.43
	S7.322,6.859,4.716,6.859z M10.222,7.831c0.228,0.556,0.522,0.817,0.784,1.112C11.08,9.03,11.167,9.11,11.14,9.237
	c-0.027,0.121-0.127,0.208-0.234,0.194c-0.201-0.027-0.395-0.06-0.576-0.107C9.653,9.15,9.023,8.862,8.467,8.467
	c-0.375,0.067-0.77,0.107-1.179,0.107c-1.212,0-2.324-0.335-3.162-0.884c0.194,0.014,0.395,0.027,0.589,0.027
	c1.44,0,2.8-0.416,3.838-1.166c1.119-0.817,1.735-1.922,1.735-3.122c0-0.348-0.054-0.69-0.154-1.018
	c1.132,0.623,1.869,1.614,1.869,2.733C12.004,6.236,11.307,7.201,10.222,7.831z"/>
</svg>
