<?xml version="1.0" encoding="utf-8"?>
<!-- Generator: Adobe Illustrator 17.0.0, SVG Export Plug-In . SVG Version: 6.00 Build 0)  -->
<!DOCTYPE svg PUBLIC "-//W3C//DTD SVG 1.1//EN" "http://www.w3.org/Graphics/SVG/1.1/DTD/svg11.dtd">
<svg version="1.1" id="Layer_1" xmlns="http://www.w3.org/2000/svg" xmlns:xlink="http://www.w3.org/1999/xlink" x="0px" y="0px"
	 width="10.597px" height="11.146px" viewBox="0 0 10.597 11.146" enable-background="new 0 0 10.597 11.146" xml:space="preserve">
<path d="M6.778,8.4c0,0.409-0.12,0.811-0.321,1.159c-0.69,1.172-2.13,1.587-3.409,1.587c-1.005,0-2.244-0.261-2.801-1.199
	C0.087,9.686,0,9.378,0,9.07c0-0.757,0.469-1.387,1.092-1.775c0.783-0.489,1.802-0.61,2.706-0.67
	C3.563,6.317,3.376,6.042,3.376,5.64c0-0.214,0.06-0.382,0.141-0.569C3.362,5.084,3.215,5.098,3.061,5.098
	c-1.306,0-2.351-0.951-2.351-2.284c0-0.737,0.348-1.46,0.904-1.943C2.337,0.248,3.362,0,4.293,0h2.801L6.169,0.589H5.291
	c0.623,0.529,1.005,1.119,1.005,1.963c0,1.735-1.587,1.929-1.587,2.78C4.709,6.216,6.778,6.511,6.778,8.4z M5.827,8.969
	c0-0.904-0.897-1.454-1.547-1.922C4.173,7.034,4.065,7.034,3.958,7.034c-1.092,0-2.713,0.348-2.713,1.728
	c0,1.306,1.414,1.775,2.499,1.775C4.735,10.537,5.827,10.122,5.827,8.969z M4.695,4.287C4.97,3.992,5.05,3.617,5.05,3.222
	c0-0.992-0.582-2.673-1.788-2.673c-0.375,0-0.764,0.188-0.991,0.482C2.029,1.333,1.955,1.728,1.955,2.104
	c0,1.004,0.569,2.585,1.775,2.585C4.065,4.689,4.461,4.528,4.695,4.287z M10.597,4.669v0.724H9.17v1.467H8.467V5.393h-1.42V4.669
	h1.42V3.215H9.17v1.454H10.597z"/>
</svg>
