<?xml version="1.0" encoding="utf-8"?>
<!-- Generator: Adobe Illustrator 17.0.0, SVG Export Plug-In . SVG Version: 6.00 Build 0)  -->
<!DOCTYPE svg PUBLIC "-//W3C//DTD SVG 1.1//EN" "http://www.w3.org/Graphics/SVG/1.1/DTD/svg11.dtd">
<svg version="1.1" id="Layer_1" xmlns="http://www.w3.org/2000/svg" xmlns:xlink="http://www.w3.org/1999/xlink" x="0px" y="0px"
	 width="10.289px" height="10.289px" viewBox="0 0 10.289 10.289" enable-background="new 0 0 10.289 10.289" xml:space="preserve">
<path d="M10.289,8.969c0,0.724-0.596,1.32-1.319,1.32h-7.65C0.596,10.289,0,9.693,0,8.969V1.32C0,0.596,0.596,0,1.319,0h7.65
	c0.724,0,1.319,0.596,1.319,1.32V8.969z M9.123,4.354H8.219C8.307,4.629,8.354,4.93,8.354,5.231c0,1.715-1.434,3.102-3.202,3.102
	c-1.762,0-3.195-1.387-3.195-3.102c0-0.301,0.047-0.603,0.134-0.877H1.146v4.341c0,0.228,0.181,0.409,0.408,0.409h7.161
	c0.228,0,0.408-0.181,0.408-0.409V4.354z M5.151,3.122c-1.139,0-2.063,0.897-2.063,2.003c0,1.105,0.925,2.003,2.063,2.003
	c1.146,0,2.069-0.898,2.069-2.003C7.221,4.019,6.297,3.122,5.151,3.122z M9.123,1.608c0-0.255-0.207-0.462-0.462-0.462H7.496
	c-0.255,0-0.463,0.208-0.463,0.462v1.105c0,0.254,0.208,0.462,0.463,0.462h1.165c0.255,0,0.462-0.208,0.462-0.462V1.608z"/>
</svg>
