<?xml version="1.0" encoding="utf-8"?>
<!-- Generator: Adobe Illustrator 17.0.0, SVG Export Plug-In . SVG Version: 6.00 Build 0)  -->
<!DOCTYPE svg PUBLIC "-//W3C//DTD SVG 1.1//EN" "http://www.w3.org/Graphics/SVG/1.1/DTD/svg11.dtd">
<svg version="1.1" id="Layer_1" xmlns="http://www.w3.org/2000/svg" xmlns:xlink="http://www.w3.org/1999/xlink" x="0px" y="0px"
	 width="10.289px" height="10.289px" viewBox="0 0 10.289 10.289" enable-background="new 0 0 10.289 10.289" xml:space="preserve">
<path d="M5.145,10.289c-0.509,0-0.991-0.074-1.46-0.214C3.879,9.767,4.1,9.372,4.207,8.976c0,0,0.06-0.228,0.361-1.414
	c0.174,0.342,0.696,0.643,1.253,0.643c1.654,0,2.779-1.507,2.779-3.53c0-1.521-1.292-2.948-3.262-2.948
	c-2.438,0-3.671,1.755-3.671,3.215c0,0.884,0.335,1.675,1.052,1.97c0.114,0.047,0.221,0,0.255-0.134
	c0.026-0.087,0.08-0.314,0.106-0.408c0.034-0.134,0.021-0.174-0.073-0.288C2.8,5.834,2.666,5.52,2.666,5.071
	c0-1.299,0.972-2.465,2.532-2.465c1.38,0,2.144,0.844,2.144,1.976c0,1.48-0.656,2.733-1.635,2.733c-0.536,0-0.938-0.442-0.811-0.991
	c0.154-0.65,0.456-1.354,0.456-1.822c0-0.422-0.229-0.777-0.697-0.777c-0.549,0-0.991,0.569-0.991,1.333c0,0,0,0.489,0.168,0.817
	c-0.563,2.385-0.664,2.8-0.664,2.8c-0.094,0.388-0.1,0.824-0.087,1.186C1.266,9.063,0,7.254,0,5.145C0,2.304,2.305,0,5.145,0
	s5.145,2.304,5.145,5.145S7.984,10.289,5.145,10.289z"/>
</svg>
