<?xml version="1.0" encoding="utf-8"?>
<!-- Generator: Adobe Illustrator 17.0.0, SVG Export Plug-In . SVG Version: 6.00 Build 0)  -->
<!DOCTYPE svg PUBLIC "-//W3C//DTD SVG 1.1//EN" "http://www.w3.org/Graphics/SVG/1.1/DTD/svg11.dtd">
<svg version="1.1" id="Layer_1" xmlns="http://www.w3.org/2000/svg" xmlns:xlink="http://www.w3.org/1999/xlink" x="0px" y="0px"
	 width="9.432px" height="9.432px" viewBox="0 0 9.432 9.432" enable-background="new 0 0 9.432 9.432" xml:space="preserve">
<path d="M9.312,9.298C9.23,9.385,9.123,9.432,9.003,9.432H8.045c-0.228,0-0.415-0.174-0.429-0.402
	C7.396,5.138,4.294,2.037,0.402,1.809C0.174,1.795,0,1.608,0,1.387V0.429c0-0.121,0.047-0.228,0.134-0.308
	C0.214,0.04,0.321,0,0.429,0c0.007,0,0.014,0,0.021,0c2.344,0.121,4.548,1.105,6.209,2.773c1.668,1.661,2.653,3.865,2.773,6.209
	C9.438,9.097,9.398,9.21,9.312,9.298z M5.888,9.291c-0.08,0.094-0.194,0.141-0.314,0.141H4.669c-0.221,0-0.402-0.167-0.422-0.389
	C4.053,7,2.432,5.379,0.389,5.185C0.167,5.165,0,4.984,0,4.763V3.858c0-0.121,0.047-0.234,0.141-0.315
	C0.214,3.47,0.321,3.43,0.429,3.43c0.014,0,0.021,0,0.033,0c1.427,0.114,2.773,0.737,3.785,1.755
	c1.018,1.012,1.641,2.358,1.755,3.785C6.009,9.09,5.969,9.204,5.888,9.291z M1.286,9.432C0.576,9.432,0,8.855,0,8.146
	s0.576-1.286,1.286-1.286s1.286,0.576,1.286,1.286S1.996,9.432,1.286,9.432z"/>
</svg>
