<?xml version="1.0" encoding="utf-8"?>
<!-- Generator: Adobe Illustrator 17.0.0, SVG Export Plug-In . SVG Version: 6.00 Build 0)  -->
<!DOCTYPE svg PUBLIC "-//W3C//DTD SVG 1.1//EN" "http://www.w3.org/Graphics/SVG/1.1/DTD/svg11.dtd">
<svg version="1.1" id="Layer_1" xmlns="http://www.w3.org/2000/svg" xmlns:xlink="http://www.w3.org/1999/xlink" x="0px" y="0px"
	 width="10.557px" height="8.574px" viewBox="0 0 10.557 8.574" enable-background="new 0 0 10.557 8.574" xml:space="preserve">
<path d="M9.471,2.137C9.478,2.23,9.478,2.324,9.478,2.418c0,2.86-2.177,6.156-6.156,6.156C2.097,8.574,0.958,8.219,0,7.603
	C0.174,7.623,0.341,7.63,0.522,7.63c1.011,0,1.942-0.342,2.686-0.925c-0.951-0.02-1.749-0.643-2.023-1.5
	c0.134,0.021,0.268,0.034,0.409,0.034c0.194,0,0.388-0.027,0.569-0.074C1.172,4.964,0.429,4.093,0.429,3.041c0-0.006,0-0.02,0-0.027
	c0.288,0.161,0.623,0.261,0.978,0.275C0.824,2.9,0.442,2.237,0.442,1.487c0-0.402,0.107-0.771,0.295-1.092
	c1.065,1.313,2.666,2.17,4.461,2.264C5.165,2.499,5.145,2.331,5.145,2.164C5.145,0.971,6.109,0,7.308,0
	c0.623,0,1.186,0.261,1.581,0.683c0.488-0.094,0.958-0.274,1.373-0.522c-0.161,0.502-0.503,0.924-0.951,1.192
	c0.436-0.047,0.857-0.167,1.246-0.335C10.262,1.447,9.894,1.829,9.471,2.137z"/>
</svg>
