<?xml version="1.0" encoding="utf-8"?>
<!-- Generator: Adobe Illustrator 17.0.0, SVG Export Plug-In . SVG Version: 6.00 Build 0)  -->
<!DOCTYPE svg PUBLIC "-//W3C//DTD SVG 1.1//EN" "http://www.w3.org/Graphics/SVG/1.1/DTD/svg11.dtd">
<svg version="1.1" id="Layer_1" xmlns="http://www.w3.org/2000/svg" xmlns:xlink="http://www.w3.org/1999/xlink" x="0px" y="0px"
	 width="12.004px" height="8.574px" viewBox="0 0 12.004 8.574" enable-background="new 0 0 12.004 8.574" xml:space="preserve">
<path d="M11.789,7.194c-0.141,0.656-0.663,1.139-1.292,1.212C9.01,8.574,7.502,8.574,6.002,8.574s-3.008,0-4.495-0.167
	C0.878,8.333,0.355,7.851,0.208,7.194C0,6.263,0,5.245,0,4.287S0,2.311,0.215,1.38c0.146-0.656,0.663-1.139,1.292-1.212
	C2.994,0,4.502,0,6.002,0s3.008,0,4.495,0.167c0.629,0.074,1.151,0.556,1.299,1.212c0.208,0.931,0.208,1.949,0.208,2.907
	S12.004,6.263,11.789,7.194z M8.373,3.925l-3.43-2.144C4.81,1.695,4.643,1.695,4.508,1.769C4.374,1.842,4.287,1.989,4.287,2.144
	v4.287c0,0.154,0.087,0.301,0.221,0.375c0.067,0.034,0.135,0.054,0.208,0.054c0.08,0,0.161-0.02,0.228-0.067l3.43-2.144
	c0.128-0.074,0.201-0.214,0.201-0.362S8.501,3.999,8.373,3.925z"/>
</svg>
